<mxfile host="app.diagrams.net" modified="2020-07-21T00:05:27.321Z" agent="5.0 (X11)" etag="wotxpowP_oFVQ7NLKcpN" version="13.4.9" type="github">
  <diagram id="6a731a19-8d31-9384-78a2-239565b7b9f0" name="Page-1">
    <mxGraphModel dx="2119" dy="557" grid="1" gridSize="10" guides="1" tooltips="1" connect="1" arrows="1" fold="1" page="1" pageScale="1" pageWidth="1169" pageHeight="827" background="#ffffff" math="0" shadow="0">
      <root>
        <mxCell id="0" />
        <mxCell id="1" parent="0" />
        <mxCell id="56" value="Flujo de solicitud de crédito." style="strokeColor=#BAC8D3;fillColor=#23445D;fontSize=24;strokeWidth=2;fontFamily=Helvetica;html=1;fontColor=#FFFFFF;fontStyle=0;spacingBottom=8;spacingRight=0;spacingLeft=83;" parent="1" vertex="1">
          <mxGeometry x="0.33" y="827" width="2039.67" height="54" as="geometry" />
        </mxCell>
        <mxCell id="57" value="Lane 1" style="strokeColor=#BAC8D3;fillColor=#23445D;fontSize=24;strokeWidth=2;horizontal=0;fontFamily=Helvetica;html=1;fontColor=#FFFFFF;fontStyle=0" parent="1" vertex="1">
          <mxGeometry y="907" width="50" height="300" as="geometry" />
        </mxCell>
        <mxCell id="58" value="Acción 1" style="strokeColor=#BAC8D3;fillColor=#5d7f99;fontSize=19;strokeWidth=2;horizontal=0;fontFamily=Helvetica;html=1;labelBackgroundColor=none;fontColor=#FFFFFF;" parent="1" vertex="1">
          <mxGeometry x="50" y="907" width="40" height="100" as="geometry" />
        </mxCell>
        <mxCell id="59" value="v 1.0" style="strokeColor=#BAC8D3;fillColor=#5d7f99;fontSize=19;strokeWidth=2;fontFamily=Helvetica;html=1;labelBackgroundColor=none;fontColor=#FFFFFF;" parent="1" vertex="1">
          <mxGeometry y="827" width="90" height="80" as="geometry" />
        </mxCell>
        <mxCell id="60" value="Lane 1.2" style="strokeColor=#BAC8D3;fillColor=#5d7f99;fontSize=19;strokeWidth=2;horizontal=0;fontFamily=Helvetica;html=1;labelBackgroundColor=none;fontColor=#FFFFFF;" parent="1" vertex="1">
          <mxGeometry x="50" y="1007" width="40" height="100" as="geometry" />
        </mxCell>
        <mxCell id="61" value="Lane 1.3" style="strokeColor=#BAC8D3;fillColor=#5d7f99;fontSize=19;strokeWidth=2;horizontal=0;fontFamily=Helvetica;html=1;labelBackgroundColor=none;fontColor=#FFFFFF;" parent="1" vertex="1">
          <mxGeometry x="50" y="1107" width="40" height="100" as="geometry" />
        </mxCell>
        <mxCell id="62" value="Lane 2.2" style="strokeColor=#BAC8D3;fillColor=#5d7f99;fontSize=19;strokeWidth=2;horizontal=0;fontFamily=Helvetica;html=1;labelBackgroundColor=none;fontColor=#FFFFFF;" parent="1" vertex="1">
          <mxGeometry x="50" y="1307" width="40" height="100" as="geometry" />
        </mxCell>
        <mxCell id="63" value="Lane 2.1" style="strokeColor=#BAC8D3;fillColor=#5d7f99;fontSize=19;strokeWidth=2;horizontal=0;fontFamily=Helvetica;html=1;labelBackgroundColor=none;fontColor=#FFFFFF;" parent="1" vertex="1">
          <mxGeometry x="50" y="1207" width="40" height="100" as="geometry" />
        </mxCell>
        <mxCell id="64" value="Lane 2" style="strokeColor=#BAC8D3;fillColor=#23445D;fontSize=24;strokeWidth=2;horizontal=0;fontFamily=Helvetica;html=1;fontColor=#FFFFFF;fontStyle=0" parent="1" vertex="1">
          <mxGeometry y="1207" width="50" height="200" as="geometry" />
        </mxCell>
        <mxCell id="65" value="Lane 3.2" style="strokeColor=#BAC8D3;fillColor=#5d7f99;fontSize=19;strokeWidth=2;horizontal=0;fontFamily=Helvetica;html=1;labelBackgroundColor=none;fontColor=#FFFFFF;" parent="1" vertex="1">
          <mxGeometry x="50" y="1507" width="40" height="100" as="geometry" />
        </mxCell>
        <mxCell id="66" value="Lane 3.1" style="strokeColor=#BAC8D3;fillColor=#5d7f99;fontSize=19;strokeWidth=2;horizontal=0;fontFamily=Helvetica;html=1;labelBackgroundColor=none;fontColor=#FFFFFF;" parent="1" vertex="1">
          <mxGeometry x="50" y="1407" width="40" height="100" as="geometry" />
        </mxCell>
        <mxCell id="67" value="Lane 3" style="strokeColor=#BAC8D3;fillColor=#23445D;fontSize=24;strokeWidth=2;horizontal=0;fontFamily=Helvetica;html=1;fontColor=#FFFFFF;fontStyle=0" parent="1" vertex="1">
          <mxGeometry y="1407" width="50" height="200" as="geometry" />
        </mxCell>
        <mxCell id="68" value="" style="strokeColor=#FFFFFF;fillColor=#BAC8D3;fontSize=18;strokeWidth=2;fontFamily=Helvetica;html=1;opacity=60;" parent="1" vertex="1">
          <mxGeometry x="90" y="907" width="1950" height="100" as="geometry" />
        </mxCell>
        <mxCell id="69" value="" style="strokeColor=#FFFFFF;fillColor=#BAC8D3;fontSize=18;strokeWidth=2;fontFamily=Helvetica;html=1;opacity=90;" parent="1" vertex="1">
          <mxGeometry x="90" y="1007" width="1950" height="100" as="geometry" />
        </mxCell>
        <mxCell id="70" value="" style="strokeColor=#FFFFFF;fillColor=#BAC8D3;fontSize=18;strokeWidth=2;fontFamily=Helvetica;html=1;opacity=60;" parent="1" vertex="1">
          <mxGeometry x="90" y="1107" width="1950" height="100" as="geometry" />
        </mxCell>
        <mxCell id="71" value="" style="strokeColor=#FFFFFF;fillColor=#BAC8D3;fontSize=18;strokeWidth=2;fontFamily=Helvetica;html=1;opacity=90;" parent="1" vertex="1">
          <mxGeometry x="90" y="1207" width="1950" height="100" as="geometry" />
        </mxCell>
        <mxCell id="72" value="" style="strokeColor=#FFFFFF;fillColor=#BAC8D3;fontSize=18;strokeWidth=2;fontFamily=Helvetica;html=1;opacity=60;" parent="1" vertex="1">
          <mxGeometry x="90" y="1307" width="1950" height="100" as="geometry" />
        </mxCell>
        <mxCell id="73" value="" style="strokeColor=#FFFFFF;fillColor=#BAC8D3;fontSize=18;strokeWidth=2;fontFamily=Helvetica;html=1;opacity=90;" parent="1" vertex="1">
          <mxGeometry x="90" y="1407" width="1950" height="100" as="geometry" />
        </mxCell>
        <mxCell id="74" value="" style="strokeColor=#FFFFFF;fillColor=#BAC8D3;fontSize=18;strokeWidth=2;fontFamily=Helvetica;html=1;opacity=60;" parent="1" vertex="1">
          <mxGeometry x="90" y="1507" width="1950" height="100" as="geometry" />
        </mxCell>
        <mxCell id="90" value="&lt;b&gt;&lt;font color=&quot;#FFFFFF&quot;&gt;Solicitud&lt;/font&gt;&lt;/b&gt;" style="rounded=1;fillColor=#23445D;strokeColor=none;strokeWidth=2;fontFamily=Helvetica;html=1;gradientColor=none;" parent="1" vertex="1">
          <mxGeometry x="90.00455782312928" y="932" width="127" height="50" as="geometry" />
        </mxCell>
        <mxCell id="92" value="&lt;font color=&quot;#FFFFFF&quot;&gt;&lt;b&gt;Nuevo&lt;/b&gt;&lt;/font&gt;" style="rounded=1;fillColor=#23445D;strokeColor=none;strokeWidth=2;fontFamily=Helvetica;html=1;gradientColor=none;" parent="1" vertex="1">
          <mxGeometry x="260.0037414965986" y="1032" width="127" height="50" as="geometry" />
        </mxCell>
        <mxCell id="140" value="" style="group" parent="1" vertex="1" connectable="0">
          <mxGeometry x="90" y="867" width="300" height="40" as="geometry" />
        </mxCell>
        <mxCell id="141" value="Inicio" style="strokeColor=#BAC8D3;fillColor=#5d7f99;fontSize=19;strokeWidth=2;fontFamily=Helvetica;html=1;labelBackgroundColor=none;fontColor=#FFFFFF;" parent="140" vertex="1">
          <mxGeometry width="129.99979285839487" height="40" as="geometry" />
        </mxCell>
        <mxCell id="142" value="Usuario" style="strokeColor=#BAC8D3;fillColor=#5d7f99;fontSize=19;strokeWidth=2;fontFamily=Helvetica;html=1;labelBackgroundColor=none;fontColor=#FFFFFF;" parent="140" vertex="1">
          <mxGeometry x="130" width="170" height="40" as="geometry" />
        </mxCell>
        <mxCell id="143" value="Medio" style="strokeColor=#BAC8D3;fillColor=#5d7f99;fontSize=19;strokeWidth=2;fontFamily=Helvetica;html=1;labelBackgroundColor=none;fontColor=#FFFFFF;" parent="1" vertex="1">
          <mxGeometry x="390" y="867" width="170" height="40" as="geometry" />
        </mxCell>
        <mxCell id="L_8B3M4ZMhIBCMp_4Mvt-145" value="" style="edgeStyle=elbowEdgeStyle;elbow=horizontal;strokeWidth=3;strokeColor=#0C343D;fontFamily=Helvetica;html=1;exitX=1;exitY=0.5;exitDx=0;exitDy=0;entryX=0;entryY=0.5;entryDx=0;entryDy=0;" edge="1" parent="1" source="90" target="92">
          <mxGeometry x="-358.9010204081633" y="420" width="131.97278911564624" height="100" as="geometry">
            <mxPoint x="240.00374149659856" y="970" as="sourcePoint" />
            <mxPoint x="350.5547619047619" y="870" as="targetPoint" />
          </mxGeometry>
        </mxCell>
        <mxCell id="L_8B3M4ZMhIBCMp_4Mvt-146" value="&lt;font color=&quot;#FFFFFF&quot;&gt;&lt;b&gt;Recompra&lt;/b&gt;&lt;/font&gt;" style="rounded=1;fillColor=#23445D;strokeColor=none;strokeWidth=2;fontFamily=Helvetica;html=1;gradientColor=none;" vertex="1" parent="1">
          <mxGeometry x="263.0037414965986" y="1140" width="127" height="50" as="geometry" />
        </mxCell>
        <mxCell id="L_8B3M4ZMhIBCMp_4Mvt-147" value="" style="edgeStyle=elbowEdgeStyle;elbow=horizontal;strokeWidth=3;strokeColor=#0C343D;fontFamily=Helvetica;html=1;exitX=1;exitY=0.5;exitDx=0;exitDy=0;entryX=0;entryY=0.5;entryDx=0;entryDy=0;" edge="1" parent="1">
          <mxGeometry x="-350.9010204081633" y="430" width="131.97278911564624" height="100" as="geometry">
            <mxPoint x="215.0045578231293" y="957" as="sourcePoint" />
            <mxPoint x="261.00374149659865" y="1165.0000000000002" as="targetPoint" />
            <Array as="points">
              <mxPoint x="238" y="1070" />
              <mxPoint x="228" y="1090" />
            </Array>
          </mxGeometry>
        </mxCell>
        <mxCell id="L_8B3M4ZMhIBCMp_4Mvt-148" value="&lt;font color=&quot;#FFFFFF&quot;&gt;&lt;b&gt;APP&lt;/b&gt;&lt;/font&gt;" style="rounded=1;fillColor=#23445D;strokeColor=none;strokeWidth=2;fontFamily=Helvetica;html=1;gradientColor=none;" vertex="1" parent="1">
          <mxGeometry x="420.0037414965986" y="932" width="127" height="50" as="geometry" />
        </mxCell>
        <mxCell id="L_8B3M4ZMhIBCMp_4Mvt-149" value="&lt;font color=&quot;#FFFFFF&quot;&gt;&lt;b&gt;Sucursal&lt;/b&gt;&lt;/font&gt;" style="rounded=1;fillColor=#23445D;strokeColor=none;strokeWidth=2;fontFamily=Helvetica;html=1;gradientColor=none;" vertex="1" parent="1">
          <mxGeometry x="420.0037414965986" y="1140" width="127" height="50" as="geometry" />
        </mxCell>
        <mxCell id="L_8B3M4ZMhIBCMp_4Mvt-150" value="" style="edgeStyle=elbowEdgeStyle;elbow=horizontal;strokeWidth=3;strokeColor=#0C343D;fontFamily=Helvetica;html=1;exitX=1;exitY=0.5;exitDx=0;exitDy=0;entryX=0;entryY=0.5;entryDx=0;entryDy=0;" edge="1" parent="1" source="92" target="L_8B3M4ZMhIBCMp_4Mvt-148">
          <mxGeometry x="-145.90102040816328" y="526" width="131.97278911564624" height="100" as="geometry">
            <mxPoint x="420.0045578231293" y="1052.9999999999998" as="sourcePoint" />
            <mxPoint x="466.00374149659865" y="1261.0000000000002" as="targetPoint" />
            <Array as="points">
              <mxPoint x="400" y="1057" />
              <mxPoint x="433" y="1186" />
            </Array>
          </mxGeometry>
        </mxCell>
        <mxCell id="L_8B3M4ZMhIBCMp_4Mvt-151" value="" style="edgeStyle=elbowEdgeStyle;elbow=horizontal;strokeWidth=3;strokeColor=#0C343D;fontFamily=Helvetica;html=1;exitX=1;exitY=0.5;exitDx=0;exitDy=0;entryX=0;entryY=0.5;entryDx=0;entryDy=0;" edge="1" parent="1" source="92" target="L_8B3M4ZMhIBCMp_4Mvt-149">
          <mxGeometry x="-155.90102040816328" y="534" width="131.97278911564624" height="100" as="geometry">
            <mxPoint x="410.0045578231293" y="1060.9999999999998" as="sourcePoint" />
            <mxPoint x="456.00374149659865" y="1269.0000000000002" as="targetPoint" />
            <Array as="points">
              <mxPoint x="400" y="1170" />
              <mxPoint x="423" y="1194" />
            </Array>
          </mxGeometry>
        </mxCell>
        <mxCell id="L_8B3M4ZMhIBCMp_4Mvt-152" value="Consulta de datos" style="strokeColor=#BAC8D3;fillColor=#5d7f99;fontSize=19;strokeWidth=2;fontFamily=Helvetica;html=1;labelBackgroundColor=none;fontColor=#FFFFFF;" vertex="1" parent="1">
          <mxGeometry x="560" y="867" width="160" height="40" as="geometry" />
        </mxCell>
        <mxCell id="L_8B3M4ZMhIBCMp_4Mvt-153" value="" style="shape=cylinder;whiteSpace=wrap;html=1;boundedLbl=1;backgroundOutline=1;strokeWidth=3;fillColor=#23445D;" vertex="1" parent="1">
          <mxGeometry x="620" y="1017" width="40" height="60" as="geometry" />
        </mxCell>
        <mxCell id="L_8B3M4ZMhIBCMp_4Mvt-155" value="" style="shape=cylinder;whiteSpace=wrap;html=1;boundedLbl=1;backgroundOutline=1;strokeWidth=3;fillColor=#23445D;" vertex="1" parent="1">
          <mxGeometry x="630" y="1027" width="40" height="60" as="geometry" />
        </mxCell>
        <mxCell id="L_8B3M4ZMhIBCMp_4Mvt-156" value="" style="shape=cylinder;whiteSpace=wrap;html=1;boundedLbl=1;backgroundOutline=1;strokeWidth=3;fillColor=#23445D;" vertex="1" parent="1">
          <mxGeometry x="640" y="1037" width="40" height="60" as="geometry" />
        </mxCell>
        <mxCell id="L_8B3M4ZMhIBCMp_4Mvt-157" value="" style="edgeStyle=elbowEdgeStyle;elbow=horizontal;strokeWidth=3;strokeColor=#0C343D;fontFamily=Helvetica;html=1;entryX=0;entryY=0.7;entryDx=0;entryDy=0;exitX=1;exitY=0.5;exitDx=0;exitDy=0;" edge="1" parent="1" source="L_8B3M4ZMhIBCMp_4Mvt-148" target="L_8B3M4ZMhIBCMp_4Mvt-153">
          <mxGeometry x="27.098979591836724" y="629" width="131.97278911564624" height="100" as="geometry">
            <mxPoint x="560.0037414965986" y="1159.9999999999998" as="sourcePoint" />
            <mxPoint x="593.0037414965986" y="1059.9999999999998" as="targetPoint" />
            <Array as="points">
              <mxPoint x="570" y="1070" />
              <mxPoint x="573" y="1160" />
              <mxPoint x="606" y="1289" />
            </Array>
          </mxGeometry>
        </mxCell>
        <mxCell id="L_8B3M4ZMhIBCMp_4Mvt-158" value="" style="edgeStyle=elbowEdgeStyle;elbow=horizontal;strokeWidth=3;strokeColor=#0C343D;fontFamily=Helvetica;html=1;exitX=1;exitY=0.5;exitDx=0;exitDy=0;entryX=0;entryY=0.7;entryDx=0;entryDy=0;" edge="1" parent="1" source="L_8B3M4ZMhIBCMp_4Mvt-149" target="L_8B3M4ZMhIBCMp_4Mvt-153">
          <mxGeometry x="47.098979591836724" y="639" width="131.97278911564624" height="100" as="geometry">
            <mxPoint x="580.0037414965986" y="1169.9999999999998" as="sourcePoint" />
            <mxPoint x="613.0037414965986" y="1069.9999999999998" as="targetPoint" />
            <Array as="points">
              <mxPoint x="570" y="1100" />
              <mxPoint x="626" y="1299" />
            </Array>
          </mxGeometry>
        </mxCell>
        <mxCell id="L_8B3M4ZMhIBCMp_4Mvt-159" value="&lt;div&gt;&lt;font color=&quot;#FFFFFF&quot;&gt;&lt;b&gt;Investigación&lt;/b&gt;&lt;/font&gt;&lt;/div&gt;&lt;div&gt;&lt;font color=&quot;#FFFFFF&quot;&gt;&lt;b&gt;y&lt;/b&gt;&lt;/font&gt;&lt;/div&gt;&lt;div&gt;&lt;font color=&quot;#FFFFFF&quot;&gt;&lt;b&gt; Enganche&lt;/b&gt;&lt;/font&gt;&lt;/div&gt;" style="rounded=1;strokeColor=none;strokeWidth=2;fontFamily=Helvetica;html=1;gradientColor=none;fillColor=#990000;" vertex="1" parent="1">
          <mxGeometry x="736.5037414965986" y="1132" width="127" height="50" as="geometry" />
        </mxCell>
        <mxCell id="L_8B3M4ZMhIBCMp_4Mvt-161" value="Respuesta" style="strokeColor=#BAC8D3;fillColor=#5d7f99;fontSize=19;strokeWidth=2;fontFamily=Helvetica;html=1;labelBackgroundColor=none;fontColor=#FFFFFF;" vertex="1" parent="1">
          <mxGeometry x="720" y="867" width="160" height="40" as="geometry" />
        </mxCell>
        <mxCell id="L_8B3M4ZMhIBCMp_4Mvt-162" value="&lt;font color=&quot;#FFFFFF&quot;&gt;&lt;b&gt;Investigación&lt;/b&gt;&lt;/font&gt;" style="rounded=1;strokeColor=none;strokeWidth=2;fontFamily=Helvetica;html=1;gradientColor=none;fillColor=#CCCC00;" vertex="1" parent="1">
          <mxGeometry x="736.5037414965986" y="1030" width="127" height="50" as="geometry" />
        </mxCell>
        <mxCell id="L_8B3M4ZMhIBCMp_4Mvt-163" value="&lt;font color=&quot;#FFFFFF&quot;&gt;&lt;b&gt;Crédito Inmediato&lt;br&gt;&lt;/b&gt;&lt;/font&gt;" style="rounded=1;strokeColor=none;strokeWidth=2;fontFamily=Helvetica;html=1;gradientColor=none;fillColor=#009900;" vertex="1" parent="1">
          <mxGeometry x="736.5037414965986" y="932" width="127" height="50" as="geometry" />
        </mxCell>
        <mxCell id="L_8B3M4ZMhIBCMp_4Mvt-164" value="" style="edgeStyle=elbowEdgeStyle;elbow=horizontal;strokeWidth=3;strokeColor=#0C343D;fontFamily=Helvetica;html=1;exitX=1;exitY=0.3;exitDx=0;exitDy=0;entryX=0;entryY=0.5;entryDx=0;entryDy=0;" edge="1" parent="1" source="L_8B3M4ZMhIBCMp_4Mvt-156" target="L_8B3M4ZMhIBCMp_4Mvt-163">
          <mxGeometry x="190.09897959183672" y="732" width="131.97278911564624" height="100" as="geometry">
            <mxPoint x="710.0037414965986" y="1059.9999999999998" as="sourcePoint" />
            <mxPoint x="783" y="1162" as="targetPoint" />
            <Array as="points">
              <mxPoint x="710" y="1020" />
              <mxPoint x="720" y="1090" />
              <mxPoint x="733" y="1173" />
              <mxPoint x="736" y="1263" />
              <mxPoint x="769" y="1392" />
            </Array>
          </mxGeometry>
        </mxCell>
        <mxCell id="L_8B3M4ZMhIBCMp_4Mvt-165" value="" style="edgeStyle=elbowEdgeStyle;elbow=horizontal;strokeWidth=3;strokeColor=#0C343D;fontFamily=Helvetica;html=1;entryX=0;entryY=0.5;entryDx=0;entryDy=0;exitX=1;exitY=0.3;exitDx=0;exitDy=0;" edge="1" parent="1" source="L_8B3M4ZMhIBCMp_4Mvt-156" target="L_8B3M4ZMhIBCMp_4Mvt-162">
          <mxGeometry x="200.09897959183672" y="742" width="131.97278911564624" height="100" as="geometry">
            <mxPoint x="690" y="1064.9999999999998" as="sourcePoint" />
            <mxPoint x="746.5037414965986" y="966.9999999999998" as="targetPoint" />
            <Array as="points">
              <mxPoint x="710" y="1057" />
              <mxPoint x="730" y="1100" />
              <mxPoint x="743" y="1183" />
              <mxPoint x="746" y="1273" />
              <mxPoint x="779" y="1402" />
            </Array>
          </mxGeometry>
        </mxCell>
        <mxCell id="L_8B3M4ZMhIBCMp_4Mvt-166" value="" style="edgeStyle=elbowEdgeStyle;elbow=horizontal;strokeWidth=3;strokeColor=#0C343D;fontFamily=Helvetica;html=1;exitX=1;exitY=0.3;exitDx=0;exitDy=0;entryX=0;entryY=0.5;entryDx=0;entryDy=0;" edge="1" parent="1" source="L_8B3M4ZMhIBCMp_4Mvt-156" target="L_8B3M4ZMhIBCMp_4Mvt-159">
          <mxGeometry x="210.09897959183672" y="752" width="131.97278911564624" height="100" as="geometry">
            <mxPoint x="700" y="1074.9999999999998" as="sourcePoint" />
            <mxPoint x="756.5037414965986" y="976.9999999999998" as="targetPoint" />
            <Array as="points">
              <mxPoint x="710" y="1100" />
              <mxPoint x="730" y="1040" />
              <mxPoint x="740" y="1110" />
              <mxPoint x="753" y="1193" />
              <mxPoint x="756" y="1283" />
              <mxPoint x="789" y="1412" />
            </Array>
          </mxGeometry>
        </mxCell>
        <mxCell id="L_8B3M4ZMhIBCMp_4Mvt-168" value="&lt;b&gt;&lt;font color=&quot;#FFFFFF&quot;&gt;Datos&lt;/font&gt;&lt;/b&gt;" style="text;html=1;strokeColor=none;fillColor=none;align=center;verticalAlign=middle;whiteSpace=wrap;rounded=0;" vertex="1" parent="1">
          <mxGeometry x="640" y="1062" width="40" height="20" as="geometry" />
        </mxCell>
        <mxCell id="L_8B3M4ZMhIBCMp_4Mvt-169" value="&lt;font color=&quot;#FFFFFF&quot;&gt;&lt;b&gt;GCR&lt;/b&gt;&lt;/font&gt;" style="rounded=1;fillColor=#23445D;strokeColor=none;strokeWidth=2;fontFamily=Helvetica;html=1;gradientColor=none;" vertex="1" parent="1">
          <mxGeometry x="896.5037414965986" y="932" width="127" height="50" as="geometry" />
        </mxCell>
        <mxCell id="L_8B3M4ZMhIBCMp_4Mvt-170" value="Investigación" style="strokeColor=#BAC8D3;fillColor=#5d7f99;fontSize=19;strokeWidth=2;fontFamily=Helvetica;html=1;labelBackgroundColor=none;fontColor=#FFFFFF;" vertex="1" parent="1">
          <mxGeometry x="880" y="867" width="160" height="40" as="geometry" />
        </mxCell>
        <mxCell id="L_8B3M4ZMhIBCMp_4Mvt-171" value="&lt;font color=&quot;#FFFFFF&quot;&gt;&lt;b&gt;Mesa de Control&lt;br&gt;&lt;/b&gt;&lt;/font&gt;" style="rounded=1;fillColor=#23445D;strokeColor=none;strokeWidth=2;fontFamily=Helvetica;html=1;gradientColor=none;" vertex="1" parent="1">
          <mxGeometry x="896.5037414965986" y="1132" width="127" height="50" as="geometry" />
        </mxCell>
      </root>
    </mxGraphModel>
  </diagram>
</mxfile>
